<svg width="277" height="335" viewBox="0 0 277 335" fill="none" xmlns="http://www.w3.org/2000/svg">
<path d="M12.9174 222.9H22.316V219.011H0V222.9H9.28072V233.622H0V237.51H22.316V233.622H12.9174V222.9ZM0.117857 192.794V196.432L22.5966 206.256V202.234L17.2052 199.937V189.391L22.5966 187.124V182.97L0.117857 192.794ZM13.7293 190.82V198.508L4.80218 194.679L13.7293 190.82ZM15.6581 154.972L0.220746 166.902V170.54H22.5517V166.652H6.67291L22.5517 154.368V151.083H0.220746V154.972H15.6581ZM12.7865 115.441C11.2244 115.323 9.73719 115.5 8.33788 115.97C6.93856 116.426 5.702 117.148 4.62633 118.121C3.55065 119.094 2.66767 120.287 1.99047 121.699C1.32823 123.113 0.914789 124.675 0.781967 126.413L0.149657 134.72L22.4077 136.428L23.055 128.121C23.1878 126.383 23.0101 124.763 22.5536 123.276C22.0971 121.774 21.405 120.463 20.492 119.342C19.5791 118.209 18.4586 117.309 17.1341 116.632C15.8077 115.955 14.3654 115.557 12.7884 115.439L12.7865 115.441ZM12.5358 119.55C13.6564 119.638 14.6572 119.904 15.5402 120.345C16.4382 120.787 17.2052 121.361 17.8225 122.083C18.4417 122.805 18.8982 123.66 19.2069 124.645C19.5006 125.633 19.6035 126.707 19.5155 127.87L19.1769 132.273L3.97532 131.11L4.31392 126.707C4.40184 125.543 4.66749 124.498 5.12395 123.57C5.59538 122.642 6.18465 121.862 6.91985 121.243C7.64196 120.639 8.49501 120.167 9.45283 119.874C10.3957 119.565 11.4265 119.462 12.5321 119.55H12.5358ZM37.4147 73.8179L33.9969 74.8935C34.3505 76.1598 34.5413 77.3383 34.5562 78.4437C34.5712 79.5492 34.2607 80.7108 33.6433 81.9191C33.1569 82.8619 32.5228 83.6419 31.7427 84.261C30.9626 84.8802 30.0927 85.3066 29.1498 85.5723C28.207 85.8229 27.2192 85.8959 26.1884 85.7631C25.1708 85.6452 24.1699 85.3366 23.184 84.8353C22.1963 84.319 21.3582 83.6868 20.6791 82.9348C19.9869 82.1698 19.4856 81.3449 19.147 80.4321C18.8233 79.5193 18.6756 78.5616 18.7205 77.5739C18.7654 76.5732 19.0291 75.6006 19.5155 74.6578C20.1048 73.5243 20.8419 72.6264 21.7548 71.9774C22.6677 71.3152 23.6985 70.784 24.834 70.3725L23.4048 66.8091C22.7126 67.0448 22.0354 67.3254 21.3863 67.664C20.739 68.0025 20.1198 68.4159 19.5155 68.9022C18.9262 69.3736 18.3669 69.9479 17.8206 70.625C17.2912 71.2871 16.7899 72.084 16.3184 72.9818C15.5514 74.4988 15.1099 76.0158 15.007 77.5478C14.9042 79.0647 15.08 80.5237 15.5514 81.9229C16.0229 83.3071 16.745 84.5734 17.7458 85.7088C18.7336 86.8573 19.9402 87.7851 21.3545 88.5221C22.7968 89.259 24.2709 89.7005 25.7731 89.8333C27.2903 89.9511 28.7345 89.8034 30.1039 89.3769C31.4882 88.9504 32.7547 88.2583 33.9183 87.3006C35.0819 86.3579 36.0397 85.1495 36.7899 83.6924C37.2613 82.7646 37.6149 81.8799 37.8506 81.0269C38.0863 80.1721 38.2042 79.3472 38.2192 78.5522C38.2491 77.7423 38.1892 76.9623 38.0433 76.1804C37.9105 75.4004 37.6897 74.6185 37.411 73.8236L37.4147 73.8179ZM55.2241 41.5478C54.0905 40.4723 52.824 39.6474 51.4097 39.0881C49.9954 38.5438 48.5512 38.2782 47.0939 38.2932C45.6366 38.3081 44.2074 38.6317 42.7781 39.2509C41.3639 39.855 40.0543 40.7828 38.8589 42.0342C37.6804 43.2706 36.8124 44.6267 36.2811 46.0838C35.7367 47.5428 35.486 49.0149 35.529 50.487C35.5739 51.9741 35.9125 53.4032 36.5299 54.7873C37.1491 56.1715 38.0171 57.4098 39.1676 58.4835C40.3013 59.574 41.5827 60.3989 42.9821 60.9432C44.3963 61.5025 45.8405 61.7681 47.2978 61.7531C48.7551 61.7232 50.1844 61.4146 51.6136 60.7954C53.0279 60.1913 54.3393 59.2485 55.5309 58.0121C56.7095 56.7607 57.5794 55.4046 58.1088 53.9624C58.6532 52.5034 58.9039 51.0314 58.8609 49.5593C58.816 48.0722 58.4774 46.6431 57.8582 45.2589C57.2389 43.8748 56.3709 42.6365 55.2223 41.5478H55.2241ZM52.4405 44.5669C53.2206 45.3169 53.8398 46.1568 54.2813 47.0995C54.7228 48.0423 54.9735 48.985 55.0315 49.9558C55.0913 50.9285 54.9585 51.8862 54.6199 52.842C54.2813 53.7997 53.7369 54.6826 52.9699 55.4776C52.2048 56.2725 51.3499 56.8617 50.392 57.2452C49.4342 57.6268 48.4633 57.8195 47.4756 57.8045C46.5028 57.7895 45.5319 57.5838 44.574 57.1853C43.6162 56.7888 42.7482 56.2145 41.9531 55.4626C41.173 54.7125 40.5538 53.8727 40.1123 52.9449C39.6708 52.0021 39.4202 51.0444 39.3603 50.0867C39.3004 49.1141 39.4333 48.1433 39.7737 47.2005C40.1123 46.2428 40.6717 45.36 41.4237 44.565C42.1889 43.77 43.0438 43.1658 44.0016 42.7824C44.9594 42.4008 45.9303 42.2231 46.9181 42.2381C47.904 42.253 48.8618 42.4588 49.8196 42.8572C50.7774 43.2556 51.6454 43.8299 52.4424 44.5669H52.4405ZM78.0415 13.608L63.6799 21.885L74.8313 41.2243L78.2043 39.2808L73.6677 31.4153L83.418 25.7888L81.6502 22.7099L71.8999 28.3364L68.8207 23.0054L79.8243 16.6719L78.0415 13.608ZM111.228 2.45973L95.2748 7.01069L101.403 28.4842L105.145 27.4086L102.655 18.6752L113.481 15.5832L112.508 12.1808L101.682 15.2597L99.989 9.35257L112.201 5.86219L111.228 2.45973ZM147.773 0.426483L131.262 0L130.688 22.3283L147.364 22.7548L147.451 19.2046L134.665 18.881L134.828 12.9159L146.022 13.2114L146.11 9.66121L134.916 9.3825L135.063 3.63815L147.687 3.96175L147.775 0.426483H147.773ZM182.861 7.37918L166.967 2.84318L160.84 24.3167L176.882 28.8976L177.855 25.4951L165.555 21.9748L167.19 16.2454L177.958 19.3243L178.93 15.9218L168.162 12.843L169.739 7.31932L181.892 10.7947L182.865 7.37731L182.861 7.37918ZM217.063 47.8964L216.504 44.3611C215.193 44.5369 213.999 44.5519 212.91 44.406C211.805 44.2582 210.701 43.8018 209.595 43.0068C208.726 42.3877 208.048 41.6507 207.549 40.7828C207.062 39.928 206.754 39.0152 206.636 38.0425C206.518 37.0698 206.591 36.0841 206.857 35.0815C207.122 34.0808 207.579 33.138 208.226 32.2383C208.86 31.3405 209.61 30.6035 210.45 30.0292C211.305 29.4699 212.203 29.0715 213.161 28.8807C214.104 28.6899 215.077 28.675 216.05 28.8658C217.02 29.0566 217.95 29.455 218.803 30.0741C219.849 30.8111 220.629 31.679 221.145 32.6816C221.662 33.6693 222.043 34.7579 222.294 35.9513L226.021 35.0534C225.888 34.3314 225.697 33.6244 225.461 32.9323C225.225 32.2402 224.917 31.563 224.518 30.914C224.122 30.2499 223.635 29.6028 223.046 28.9836C222.472 28.3495 221.765 27.7472 220.925 27.158C219.54 26.1704 218.096 25.5082 216.609 25.1996C215.107 24.876 213.647 24.846 212.205 25.1116C210.761 25.3773 209.407 25.9216 208.125 26.7315C206.859 27.5414 205.753 28.602 204.84 29.8983C203.897 31.2226 203.25 32.6087 202.909 34.0957C202.556 35.5678 202.496 37.0119 202.719 38.4409C202.939 39.87 203.456 41.2242 204.236 42.5055C205.003 43.8018 206.062 44.9204 207.403 45.8631C208.243 46.4673 209.081 46.9536 209.878 47.3053C210.688 47.6588 211.483 47.8945 212.278 48.0273C213.073 48.1601 213.853 48.2181 214.65 48.19C215.445 48.1601 216.24 48.0722 217.065 47.8964H217.063ZM246.333 70.2247C247.571 69.252 248.557 68.1185 249.309 66.7923C250.046 65.4661 250.518 64.0969 250.709 62.6379C250.899 61.1957 250.782 59.7218 250.385 58.2347C249.973 56.7327 249.236 55.3186 248.176 53.9643C247.115 52.6082 245.892 51.5626 244.537 50.8275C243.168 50.0905 241.753 49.6341 240.279 49.4714C238.807 49.2955 237.333 49.4265 235.876 49.8398C234.416 50.2532 233.077 50.9453 231.839 51.9311C230.602 52.9037 229.614 54.0373 228.862 55.3635C228.11 56.6747 227.654 58.0589 227.463 59.5179C227.272 60.9619 227.375 62.434 227.787 63.9211C228.185 65.4081 228.92 66.8372 229.996 68.1914C231.057 69.5476 232.263 70.5932 233.634 71.3283C235.004 72.0653 236.418 72.5217 237.89 72.6844C239.365 72.8602 240.822 72.7293 242.279 72.3159C243.738 71.9025 245.093 71.1974 246.329 70.2247H246.333ZM243.74 67.0429C242.885 67.707 241.957 68.1915 240.971 68.502C239.984 68.8106 238.998 68.9284 238.04 68.8405C237.067 68.7657 236.139 68.487 235.241 68.0156C234.343 67.5592 233.548 66.8821 232.871 66.0123C232.179 65.1444 231.723 64.2147 231.472 63.214C231.221 62.2133 231.178 61.2256 231.339 60.253C231.487 59.2803 231.825 58.3525 232.355 57.4547C232.884 56.5718 233.578 55.7899 234.431 55.1128C235.286 54.4488 236.214 53.9643 237.2 53.6538C238.188 53.3452 239.174 53.2273 240.132 53.3153C241.104 53.3901 242.032 53.6688 242.93 54.1252C243.828 54.5965 244.625 55.2737 245.302 56.1435C245.994 57.0114 246.451 57.941 246.702 58.9417C246.937 59.9425 246.982 60.9301 246.834 61.9028C246.672 62.8754 246.333 63.8032 245.804 64.7011C245.272 65.5858 244.58 66.3658 243.742 67.0429H243.74ZM265.143 100.993L249.987 106.148L251.238 109.844L272.376 102.643L271.034 98.6958L258.852 95.6618L266.659 85.8379L265.317 81.8761L244.18 89.0645L245.433 92.7476L260.532 87.6223L252.873 97.5941L252.918 97.7269L265.143 100.997V100.993ZM269.68 140.391C270.828 140.303 271.844 140.023 272.714 139.566C273.597 139.11 274.349 138.476 274.938 137.696C275.543 136.916 275.984 135.988 276.25 134.913C276.515 133.837 276.603 132.659 276.5 131.362L275.838 122.584L253.567 124.292L253.876 128.166L261.02 127.621L261.359 132.055C261.462 133.291 261.712 134.426 262.124 135.487C262.537 136.547 263.097 137.445 263.789 138.212C264.481 138.977 265.336 139.552 266.322 139.95C267.31 140.333 268.428 140.479 269.68 140.391ZM269.296 136.43C268.088 136.519 267.072 136.164 266.277 135.354C265.482 134.544 265.025 133.409 264.908 131.907L264.554 127.356L272.596 126.737L272.95 131.303C273.068 132.762 272.817 133.953 272.213 134.883C271.609 135.811 270.638 136.325 269.296 136.428V136.43ZM277 163.913V160.275L254.521 150.451V154.473L259.913 156.77V167.316L254.521 169.585V173.722L277 163.913ZM263.39 165.887V158.199L272.318 162.028L263.39 165.887ZM261.372 202.045L276.809 190.115V186.492H254.478V190.381H270.357L254.478 202.665V205.934H276.809V202.045H261.372ZM263.331 231.134L276.764 240V235.509L266.866 229.19L276.764 222.932V218.306L263.243 227.172H254.433V231.134H263.331Z" fill="white"/>
<path d="M174.187 147.784C173.73 148.018 173.273 148.237 172.816 148.471C172.093 150.404 171.164 152.29 169.896 154.133C165.546 160.496 160.163 166.187 155.092 171.995C154.148 173.064 152.584 171.498 153.528 170.431C158.675 164.549 164.353 158.772 168.555 152.158C170.222 149.525 171.224 146.773 171.844 143.921C172.08 142.282 172.258 140.614 172.374 138.977C172.537 136.987 172.713 134.997 172.919 133.007C173.318 120.704 173.391 108.415 175.263 96.2133C170.559 96.3452 167.506 100.325 166.622 104.597C165.679 109.147 165.164 113.799 164.544 118.407C163.761 124.156 162.98 129.906 161.8 135.597C160.974 139.622 160.03 143.776 158.261 147.52C158.143 147.916 157.995 148.31 157.819 148.705C154.811 155.495 151.227 162.005 148.204 168.792C147.629 170.095 145.711 168.969 146.286 167.681C149.191 161.126 152.685 154.852 155.592 148.297C155.562 148.107 155.607 147.886 155.725 147.667C155.916 147.301 156.109 146.92 156.285 146.539C157.332 143.189 156.918 139.137 156.993 135.712C157.051 132.801 157.081 129.875 157.023 126.95C157.008 125.648 157.171 123.979 156.92 122.576C156.802 122.606 156.684 122.621 156.581 122.649C156.493 122.283 156.418 121.917 156.345 121.551C156.403 121.449 156.463 121.359 156.521 121.257C154.884 116.692 154.03 111.85 152.76 107.153C145.151 111.995 148.676 122.5 148.824 130.181C148.987 139.954 143.412 148.659 137.115 155.71C136.967 155.872 136.819 155.959 136.658 156.019C132.353 160.35 127.089 163.48 120.6 163.934C116.839 164.197 112.961 163.831 109.245 163.261C102.359 162.208 95.3398 160.028 88.4967 162.471C87.154 162.954 86.564 160.833 87.9068 160.35C97.8305 156.808 108.374 161.944 118.519 161.812C125.008 161.724 130.212 159.062 134.488 155.01C132.454 154.599 130.36 153.341 128.752 152.581C124.12 150.387 119.225 148.148 113.961 148.748C113.946 148.748 113.931 148.763 113.916 148.763H113.886C113.738 148.778 113.605 148.763 113.487 148.733C107 149.465 100.776 146.758 95.4522 142.633C95.3342 142.78 95.1712 142.897 94.9353 142.985C90.1878 144.536 85.7644 147.433 81.811 150.432C76.4736 154.484 71.4453 159.268 67.7578 164.87C61.9036 173.779 56.8453 183.303 51.5959 192.565C51.463 192.829 51.257 192.974 51.051 193.048C50.594 196.326 53.3076 199.265 55.2235 201.798C57.7011 205.031 59.9428 208 63.3344 210.341C67.02 212.886 71.6063 213.823 75.6627 215.623C76.4736 215.974 77.2995 216.076 78.0524 215.945C78.0374 215.798 78.0524 215.638 78.1254 215.461C81.532 206.448 87.5772 198.782 96.411 194.496C103.194 191.218 110.655 189.814 118.131 189.126C118.427 189.111 118.736 189.082 119.03 189.054C123.16 188.424 127.274 188.22 131.52 188.322C133.819 188.16 136.121 187.941 138.391 187.577C145.955 186.376 152.858 182.207 159.109 177.716C159.626 177.278 160.141 176.839 160.658 176.399C161.439 175.756 162.31 175.199 163.208 174.658L163.326 174.571C171.982 168.003 180.003 160.628 188.792 154.22C188.85 154.161 188.91 154.103 188.998 154.058C189.043 154.029 189.086 154.001 189.131 153.971C189.618 153.62 190.118 153.254 190.62 152.903C194.174 150.036 196.09 145.909 197.978 141.755C199.806 137.76 201.546 133.737 203.315 129.715C206.413 122.679 209.2 115.04 213.357 108.517C206.544 103.045 197.933 119.62 195.543 123.981C192.712 129.146 190.058 134.135 186.343 138.758C184.44 141.114 182.612 143.104 179.986 144.683C178.099 145.824 176.153 146.82 174.175 147.784H174.187ZM168.686 88.7813C168.641 88.7237 168.598 88.6791 168.568 88.6345C161.903 90.5798 156.212 95.0427 151.448 99.9441C150.341 101.07 149.279 102.241 148.247 103.426C155.339 104.816 161.444 101.496 167.27 97.5733C167.447 97.4563 167.624 97.3987 167.785 97.3838C167.933 97.237 168.094 97.0921 168.257 96.9453V96.9007C168.508 94.515 168.302 92.0867 168.538 89.7177C168.583 89.3963 168.626 89.0878 168.686 88.7813ZM133.34 93.0082C131.422 94.7789 129.654 96.7391 127.885 98.5246C127.488 98.9185 127.089 99.3143 126.705 99.71C126.072 100.544 125.467 101.406 124.907 102.298C124.862 102.373 124.804 102.43 124.759 102.49C127.767 107.214 130.023 112.422 131.261 117.762C133.119 114.749 135.125 111.765 137.306 108.898C137.263 108.853 137.218 108.796 137.188 108.736C134.299 103.63 133.162 97.6179 134.726 92.0142C134.254 92.3356 133.797 92.6719 133.34 93.0082ZM223.749 140.716C223.852 140.525 223.94 140.335 224 140.146C223.395 138.537 222.702 137.102 220.711 136.649C218.219 136.078 215.477 136.796 213.117 137.57C208.325 139.15 203.827 141.506 199.433 143.964C199.418 143.979 199.403 143.979 199.388 143.994C199.33 144.111 199.285 144.228 199.225 144.345C197.53 147.959 195.686 151.279 192.854 153.899C192.781 154.03 192.663 154.177 192.5 154.279C192.309 154.411 192.131 154.543 191.94 154.673C191.41 155.099 190.848 155.508 190.259 155.874C186.114 158.887 182.148 162.12 178.196 165.383C192.942 156.385 208.115 147.914 223.747 140.718L223.749 140.716ZM158.04 118.156C157.789 117.322 157.51 116.488 157.274 115.654C158.91 115.083 160.502 114.425 162.006 113.606C160.826 115.245 159.5 116.752 158.04 118.156ZM163.364 110.169C161.313 111.618 159.072 112.684 156.714 113.519C156.051 110.901 155.416 108.281 154.663 105.691C158.336 105.106 161.8 103.541 165.134 101.551C165.119 101.596 165.104 101.624 165.089 101.668C164.145 104.346 163.718 107.287 163.364 110.169ZM145.728 117.718C145.698 120.57 146.037 123.526 146.318 126.335C146.303 126.35 146.288 126.35 146.273 126.35C141.983 128.47 136.924 128.617 132.235 128.076C132.25 127.725 132.265 127.359 132.278 126.993C132.411 126.906 132.544 126.774 132.647 126.597C134.372 123.466 136.171 120.351 138.089 117.307C140.625 117.643 143.176 117.79 145.728 117.718ZM132.014 130.256C134.653 130.577 137.381 130.649 140.05 130.343C136.718 132.171 133.445 134.191 130.317 136.34C131.173 134.408 131.718 132.361 132.014 130.254V130.256ZM132.117 122.985V122.97C132.059 122.327 131.969 121.683 131.881 121.04V121.025C136.364 113.446 141.732 105.999 148.294 100.031C141.91 106.878 136.718 114.866 132.117 122.985ZM163.083 87.7556C163.304 87.7854 163.525 87.8003 163.746 87.8133C159.16 89.5096 154.957 91.9101 151.109 94.8068C150.725 92.2613 150.961 89.2625 152.554 87.2577C152.599 87.2131 152.627 87.1555 152.657 87.0961C156.137 87.0961 159.618 87.4621 163.083 87.7538V87.7556ZM150.034 87.1704C148.588 89.9351 148.47 93.3594 149.15 96.3582C145.344 99.5038 141.91 103.118 138.782 107.008C136.113 101.962 135.185 95.8305 137.587 90.4906C137.632 90.4033 137.66 90.329 137.675 90.2417C141.494 88.3112 145.756 87.4324 150.032 87.1704H150.034ZM101.151 86.3064C106.799 87.3896 111.725 90.9291 115.749 94.8644C124.39 103.35 130.879 116.194 129.978 128.483C129.654 133.091 127.915 136.939 125.186 139.952C125.274 139.559 125.334 139.178 125.379 138.767C125.924 133.295 123.461 127.547 121.161 122.732C118.064 116.295 113.979 110.327 109.423 104.825C105.323 99.894 100.634 95.1542 95.0888 91.8488C93.0981 90.6486 90.6654 89.5523 88.2458 89.2736C91.9763 86.5665 96.4297 85.396 101.149 86.3027L101.151 86.3064ZM106.857 145.982C100.059 144.196 94.3079 139.267 89.8395 134.089C81.1106 123.964 73.5446 106.599 82.2155 94.2958C82.6874 93.6232 83.2324 92.9933 83.8073 92.3932C87.5678 89.8775 92.4333 92.6571 95.6638 94.8216C101.312 98.6101 106.031 103.907 110.129 109.247C114.419 114.851 118.24 120.98 120.865 127.535C122.517 131.645 124.596 137.6 122.251 141.844C121.869 142.546 121.292 143.161 120.629 143.687C118.712 144.858 116.56 145.779 114.245 146.422C111.798 146.846 109.262 146.611 106.857 145.983V145.982ZM141.599 146.186C137.042 146.624 132.81 148.338 128.622 150.092C128.003 149.798 127.385 149.506 126.75 149.228C124.508 148.234 122.148 147.34 119.746 146.844C120.085 146.654 120.423 146.463 120.762 146.244C123.049 145.03 125.126 143.494 126.881 141.576C132.898 136.881 139.696 132.784 146.567 129.447C146.818 135.489 144.739 141.123 141.597 146.184L141.599 146.186ZM145.846 115.507C143.692 115.579 141.541 115.507 139.402 115.273C141.644 111.82 144.048 108.485 146.657 105.31C148.013 105.661 149.326 105.866 150.624 105.925C147.408 108.339 146.185 111.748 145.846 115.509V115.507ZM159.176 137.481C159.176 137.203 159.191 136.926 159.191 136.662C159.294 132.214 159.721 127.416 159.133 122.939C160.004 122.792 160.71 122.983 161.508 123.569C161.538 123.598 161.566 123.598 161.581 123.613C161.169 126.54 160.712 129.451 160.18 132.348C159.871 134.046 159.56 135.757 159.178 137.483L159.176 137.481ZM146.981 95.8156C146.908 95.8008 146.833 95.8008 146.76 95.7859C146.878 95.7562 146.996 95.7413 147.114 95.7265C147.069 95.7562 147.026 95.7859 146.981 95.8138V95.8156Z" fill="#EAB968"/>
<path d="M6 286.315C6 279.099 12.1717 273.049 19.4853 273.049C23.2515 273.049 26.7018 274.652 29.1559 277.204L25.8271 280.314C24.2477 278.491 21.9394 277.325 19.4853 277.325C14.7472 277.325 10.7381 281.431 10.7381 286.34C10.7381 291.248 14.7472 295.378 19.4853 295.378C21.988 295.378 24.272 294.212 25.8757 292.39L29.1559 295.451C26.7018 298.027 23.2515 299.63 19.4853 299.63C12.1717 299.63 6 293.532 6 286.34V286.315Z" fill="black"/>
<path d="M40.5758 286.315C40.5758 279.099 46.7475 273.049 54.0612 273.049C61.3748 273.049 67.5222 279.099 67.5222 286.315C67.5222 293.532 61.3505 299.606 54.0612 299.606C46.7718 299.606 40.5758 293.507 40.5758 286.315ZM62.7355 286.315C62.7355 281.431 58.7749 277.301 54.0612 277.301C49.3474 277.301 45.3139 281.407 45.3139 286.315C45.3139 291.223 49.3231 295.354 54.0612 295.354C58.7992 295.354 62.7355 291.248 62.7355 286.315Z" fill="black"/>
<path d="M85.8184 277.762V284.274H99.0851V288.526H85.8184V299.169H81.1533V273.51H100.47V277.762H85.8184Z" fill="black"/>
<path d="M118.548 277.762V284.274H131.814V288.526H118.548V299.169H113.882V273.51H133.199V277.762H118.548Z" fill="black"/>
<path d="M162.308 299.169L156.258 290.543H151.277V299.169H146.612V273.51H157.789C163.28 273.51 167.386 277.033 167.386 282.039C167.386 285.926 164.884 288.915 161.19 290.081L167.605 299.193H162.308V299.169ZM151.277 286.242H157.254C160.437 286.242 162.624 284.639 162.624 282.014C162.624 279.39 160.413 277.787 157.254 277.787H151.277V286.218V286.242Z" fill="black"/>
<path d="M185.634 277.762V283.958H198.901V288.21H185.634V294.892H200.286V299.144H180.969V273.486H200.286V277.738H185.634V277.762Z" fill="black"/>
<path d="M212.605 295.427L215.302 292.098C217.659 294.236 220.38 295.573 223.757 295.573C226.94 295.573 228.568 293.993 228.568 292.171C228.568 290.033 226.746 289.328 222.64 288.356C217.343 287.117 213.625 285.586 213.625 280.775C213.625 276.28 217.44 273 222.858 273C226.94 273 230.002 274.385 232.578 276.596L230.026 280.022C227.791 278.078 225.215 276.985 222.664 276.985C220.113 276.985 218.339 278.564 218.339 280.338C218.339 282.428 220.234 283.181 224.316 284.104C229.662 285.295 233.234 287.02 233.234 291.685C233.234 296.35 229.71 299.533 223.587 299.533C219.189 299.533 215.448 298.027 212.605 295.378V295.427Z" fill="black"/>
<path d="M269 273.486V299.144H264.335V288.186H251.53V299.144H246.865V273.486H251.53V283.958H264.335V273.486H269Z" fill="black"/>
<path d="M103.885 332V321.818H110.746V323.593H106.038V326.019H110.393V327.794H106.038V330.225H110.766V332H103.885ZM119.771 326.541L117.832 326.661C117.799 326.495 117.728 326.346 117.618 326.213C117.509 326.077 117.365 325.969 117.186 325.89C117.01 325.807 116.8 325.766 116.555 325.766C116.226 325.766 115.95 325.835 115.724 325.974C115.499 326.11 115.386 326.293 115.386 326.521C115.386 326.704 115.459 326.858 115.605 326.984C115.751 327.11 116.001 327.211 116.356 327.287L117.738 327.565C118.48 327.718 119.034 327.963 119.398 328.301C119.763 328.639 119.945 329.083 119.945 329.634C119.945 330.134 119.798 330.573 119.503 330.951C119.211 331.329 118.81 331.624 118.3 331.836C117.792 332.045 117.207 332.149 116.545 332.149C115.534 332.149 114.728 331.939 114.128 331.518C113.532 331.094 113.182 330.517 113.079 329.788L115.162 329.678C115.225 329.987 115.378 330.222 115.62 330.384C115.862 330.543 116.172 330.623 116.55 330.623C116.921 330.623 117.219 330.552 117.444 330.409C117.673 330.263 117.789 330.076 117.792 329.847C117.789 329.655 117.708 329.498 117.549 329.375C117.39 329.249 117.144 329.153 116.813 329.087L115.491 328.823C114.745 328.674 114.19 328.415 113.825 328.048C113.464 327.68 113.283 327.211 113.283 326.641C113.283 326.15 113.416 325.728 113.681 325.373C113.949 325.018 114.326 324.745 114.809 324.553C115.297 324.36 115.867 324.264 116.52 324.264C117.484 324.264 118.243 324.468 118.797 324.876C119.354 325.283 119.678 325.839 119.771 326.541ZM126.341 324.364V325.955H121.742V324.364H126.341ZM122.786 322.534H124.904V329.653C124.904 329.849 124.934 330.001 124.993 330.111C125.053 330.217 125.136 330.291 125.242 330.335C125.351 330.378 125.477 330.399 125.62 330.399C125.719 330.399 125.819 330.391 125.918 330.374C126.017 330.354 126.094 330.339 126.147 330.33L126.48 331.906C126.374 331.939 126.225 331.977 126.032 332.02C125.84 332.066 125.606 332.094 125.331 332.104C124.821 332.124 124.373 332.056 123.989 331.901C123.608 331.745 123.311 331.503 123.099 331.175C122.887 330.847 122.783 330.432 122.786 329.932V322.534ZM129.958 332.129C129.63 332.129 129.348 332.013 129.113 331.781C128.881 331.546 128.765 331.264 128.765 330.936C128.765 330.611 128.881 330.333 129.113 330.101C129.348 329.869 129.63 329.753 129.958 329.753C130.276 329.753 130.555 329.869 130.793 330.101C131.032 330.333 131.151 330.611 131.151 330.936C131.151 331.155 131.095 331.355 130.982 331.538C130.873 331.717 130.729 331.861 130.55 331.97C130.371 332.076 130.174 332.129 129.958 332.129ZM137.632 332V330.449L141.256 327.093C141.564 326.795 141.823 326.526 142.032 326.288C142.244 326.049 142.405 325.815 142.514 325.587C142.623 325.355 142.678 325.104 142.678 324.836C142.678 324.538 142.61 324.281 142.474 324.065C142.338 323.847 142.153 323.679 141.917 323.563C141.682 323.444 141.415 323.384 141.117 323.384C140.805 323.384 140.534 323.447 140.302 323.573C140.07 323.699 139.891 323.88 139.765 324.115C139.639 324.35 139.576 324.63 139.576 324.955H137.532C137.532 324.289 137.683 323.711 137.985 323.22C138.287 322.73 138.709 322.35 139.253 322.082C139.796 321.813 140.423 321.679 141.132 321.679C141.861 321.679 142.496 321.808 143.036 322.067C143.58 322.322 144.002 322.677 144.304 323.131C144.605 323.585 144.756 324.105 144.756 324.692C144.756 325.076 144.68 325.456 144.528 325.83C144.378 326.205 144.112 326.621 143.727 327.078C143.343 327.532 142.801 328.077 142.101 328.714L140.615 330.17V330.24H144.89V332H137.632ZM151.442 332.224C150.587 332.22 149.852 332.01 149.235 331.592C148.622 331.175 148.15 330.57 147.818 329.778C147.49 328.986 147.328 328.033 147.331 326.919C147.331 325.809 147.495 324.862 147.823 324.08C148.155 323.298 148.627 322.703 149.24 322.295C149.857 321.884 150.591 321.679 151.442 321.679C152.294 321.679 153.027 321.884 153.64 322.295C154.256 322.706 154.73 323.303 155.062 324.085C155.393 324.864 155.557 325.809 155.554 326.919C155.554 328.036 155.388 328.991 155.057 329.783C154.729 330.575 154.258 331.18 153.645 331.597C153.032 332.015 152.298 332.224 151.442 332.224ZM151.442 330.439C152.026 330.439 152.491 330.146 152.839 329.559C153.188 328.972 153.36 328.092 153.357 326.919C153.357 326.147 153.277 325.504 153.118 324.99C152.962 324.476 152.74 324.09 152.452 323.832C152.167 323.573 151.83 323.444 151.442 323.444C150.862 323.444 150.398 323.734 150.05 324.314C149.702 324.894 149.527 325.762 149.523 326.919C149.523 327.701 149.601 328.354 149.757 328.878C149.916 329.398 150.14 329.789 150.428 330.051C150.717 330.31 151.055 330.439 151.442 330.439ZM158.089 332V330.449L161.713 327.093C162.021 326.795 162.28 326.526 162.489 326.288C162.701 326.049 162.862 325.815 162.971 325.587C163.08 325.355 163.135 325.104 163.135 324.836C163.135 324.538 163.067 324.281 162.931 324.065C162.795 323.847 162.61 323.679 162.374 323.563C162.139 323.444 161.872 323.384 161.574 323.384C161.262 323.384 160.991 323.447 160.759 323.573C160.527 323.699 160.348 323.88 160.222 324.115C160.096 324.35 160.033 324.63 160.033 324.955H157.99C157.99 324.289 158.14 323.711 158.442 323.22C158.744 322.73 159.166 322.35 159.71 322.082C160.253 321.813 160.88 321.679 161.589 321.679C162.318 321.679 162.953 321.808 163.493 322.067C164.037 322.322 164.459 322.677 164.761 323.131C165.062 323.585 165.213 324.105 165.213 324.692C165.213 325.076 165.137 325.456 164.985 325.83C164.835 326.205 164.569 326.621 164.184 327.078C163.8 327.532 163.258 328.077 162.558 328.714L161.072 330.17V330.24H165.347V332H158.089ZM167.907 332V330.449L171.532 327.093C171.84 326.795 172.098 326.526 172.307 326.288C172.519 326.049 172.68 325.815 172.789 325.587C172.899 325.355 172.953 325.104 172.953 324.836C172.953 324.538 172.886 324.281 172.75 324.065C172.614 323.847 172.428 323.679 172.193 323.563C171.958 323.444 171.691 323.384 171.392 323.384C171.081 323.384 170.809 323.447 170.577 323.573C170.345 323.699 170.166 323.88 170.04 324.115C169.914 324.35 169.851 324.63 169.851 324.955H167.808C167.808 324.289 167.959 323.711 168.26 323.22C168.562 322.73 168.984 322.35 169.528 322.082C170.072 321.813 170.698 321.679 171.407 321.679C172.136 321.679 172.771 321.808 173.311 322.067C173.855 322.322 174.278 322.677 174.579 323.131C174.881 323.585 175.032 324.105 175.032 324.692C175.032 325.076 174.955 325.456 174.803 325.83C174.654 326.205 174.387 326.621 174.002 327.078C173.618 327.532 173.076 328.077 172.377 328.714L170.89 330.17V330.24H175.166V332H167.907Z" fill="white"/>
</svg>
