<?xml version="1.0" standalone="no"?>
<svg xmlns:xlink="http://www.w3.org/1999/xlink" id="wave" style="transform:rotate(0deg); transition: 0.3s" viewBox="0 0 1440 280" version="1.1" xmlns="http://www.w3.org/2000/svg"><defs><linearGradient id="sw-gradient-0" x1="0" x2="0" y1="1" y2="0"><stop stop-color="rgba(255, 255, 255, 1)" offset="0%"/><stop stop-color="rgba(255, 255, 255, 1)" offset="100%"/></linearGradient></defs><path style="transform:translate(0, 0px); opacity:1" fill="url(#sw-gradient-0)" d="M0,224L10,224C20,224,40,224,60,224C80,224,100,224,120,224C140,224,160,224,180,200.7C200,177,220,131,240,102.7C260,75,280,65,300,84C320,103,340,149,360,154C380,159,400,121,420,126C440,131,460,177,480,182C500,187,520,149,540,112C560,75,580,37,600,37.3C620,37,640,75,660,88.7C680,103,700,93,720,93.3C740,93,760,103,780,88.7C800,75,820,37,840,51.3C860,65,880,131,900,163.3C920,196,940,196,960,196C980,196,1000,196,1020,172.7C1040,149,1060,103,1080,74.7C1100,47,1120,37,1140,32.7C1160,28,1180,28,1200,65.3C1220,103,1240,177,1260,182C1280,187,1300,121,1320,102.7C1340,84,1360,112,1380,112C1400,112,1420,84,1430,70L1440,56L1440,280L1430,280C1420,280,1400,280,1380,280C1360,280,1340,280,1320,280C1300,280,1280,280,1260,280C1240,280,1220,280,1200,280C1180,280,1160,280,1140,280C1120,280,1100,280,1080,280C1060,280,1040,280,1020,280C1000,280,980,280,960,280C940,280,920,280,900,280C880,280,860,280,840,280C820,280,800,280,780,280C760,280,740,280,720,280C700,280,680,280,660,280C640,280,620,280,600,280C580,280,560,280,540,280C520,280,500,280,480,280C460,280,440,280,420,280C400,280,380,280,360,280C340,280,320,280,300,280C280,280,260,280,240,280C220,280,200,280,180,280C160,280,140,280,120,280C100,280,80,280,60,280C40,280,20,280,10,280L0,280Z"/><defs><linearGradient id="sw-gradient-1" x1="0" x2="0" y1="1" y2="0"><stop stop-color="rgba(255, 255, 255, 1)" offset="0%"/><stop stop-color="rgba(255, 255, 255, 1)" offset="100%"/></linearGradient></defs><path style="transform:translate(0, 50px); opacity:0.9" fill="url(#sw-gradient-1)" d="M0,112L10,116.7C20,121,40,131,60,126C80,121,100,103,120,79.3C140,56,160,28,180,32.7C200,37,220,75,240,79.3C260,84,280,56,300,74.7C320,93,340,159,360,196C380,233,400,243,420,210C440,177,460,103,480,98C500,93,520,159,540,186.7C560,215,580,205,600,172.7C620,140,640,84,660,93.3C680,103,700,177,720,182C740,187,760,121,780,98C800,75,820,93,840,93.3C860,93,880,75,900,93.3C920,112,940,168,960,172.7C980,177,1000,131,1020,98C1040,65,1060,47,1080,42C1100,37,1120,47,1140,60.7C1160,75,1180,93,1200,107.3C1220,121,1240,131,1260,116.7C1280,103,1300,65,1320,70C1340,75,1360,121,1380,116.7C1400,112,1420,56,1430,28L1440,0L1440,280L1430,280C1420,280,1400,280,1380,280C1360,280,1340,280,1320,280C1300,280,1280,280,1260,280C1240,280,1220,280,1200,280C1180,280,1160,280,1140,280C1120,280,1100,280,1080,280C1060,280,1040,280,1020,280C1000,280,980,280,960,280C940,280,920,280,900,280C880,280,860,280,840,280C820,280,800,280,780,280C760,280,740,280,720,280C700,280,680,280,660,280C640,280,620,280,600,280C580,280,560,280,540,280C520,280,500,280,480,280C460,280,440,280,420,280C400,280,380,280,360,280C340,280,320,280,300,280C280,280,260,280,240,280C220,280,200,280,180,280C160,280,140,280,120,280C100,280,80,280,60,280C40,280,20,280,10,280L0,280Z"/></svg>